<svg width="960" height="960" viewBox="0 0 960 960" fill="none" xmlns="http://www.w3.org/2000/svg">
<g clip-path="url(#clip0_317_818)">
<path d="M774.02 715.901C772.597 717.675 770.618 718.92 768.403 719.434C766.298 719.935 764.092 719.812 762.057 719.078C760.021 718.345 758.244 717.033 756.943 715.305C756.011 713.997 755.411 712.483 755.194 710.892C754.978 709.301 755.15 707.681 755.698 706.172C756.245 704.663 757.151 703.309 758.338 702.228C759.524 701.146 760.955 700.369 762.509 699.963C770.868 697.808 780.716 707.286 774.02 715.901Z" fill="#171717"/>
<path d="M763.165 484.218C754.138 487.987 743.315 487.011 734.699 482.257C728.147 478.632 720.168 470.992 716.481 462.807L714.5 452.589C715.65 440.595 729.3 431.024 738.879 426.054C743.15 423.678 747.776 422.007 752.579 421.104C748.312 428.049 745.65 435.859 744.785 443.964C744.431 447.546 744.535 451.159 745.093 454.715C745.485 457.188 746.118 459.616 746.983 461.965C750.144 470.571 756.182 478.077 763.165 484.218Z" fill="white" fill-opacity="0.96"/>
<path d="M746.118 444.1L744.783 443.966C745.648 435.861 748.311 428.052 752.577 421.107C755.208 420.672 757.896 420.731 760.505 421.282C768.022 422.935 773.845 429.117 777.357 435.966C781.514 443.87 782.851 452.956 781.146 461.722C780.257 466.071 778.47 470.186 775.899 473.804C773.328 477.422 770.03 480.463 766.215 482.732C765.232 483.294 764.213 483.791 763.165 484.221C756.182 478.08 750.144 470.574 746.981 461.968L747.481 461.793C752.061 462.071 756.939 461.413 760.574 458.61C764.209 455.807 766.068 450.374 763.747 446.41C762.114 443.61 758.777 442.11 755.542 441.964C752.282 441.977 749.065 442.706 746.118 444.1V444.1Z" fill="#171717"/>
<path d="M695.162 361.348C691.556 362.431 687.693 362.287 684.177 360.94C680.662 359.592 677.692 357.117 675.733 353.902C674.529 351.879 673.738 349.638 673.406 347.308C673.075 344.977 673.21 342.604 673.803 340.327C674.405 337.861 675.561 335.564 677.181 333.611C679.521 330.807 682.683 328.811 686.22 327.904C689.757 326.998 693.489 327.227 696.889 328.559C700.289 329.891 703.183 332.259 705.162 335.328C707.141 338.396 708.105 342.009 707.917 345.656C707.78 348.901 706.71 352.039 704.836 354.693C702.47 357.955 699.055 360.305 695.162 361.348Z" fill="#171717"/>
<path d="M618.524 149.423L615.576 150.244C602.493 148.057 549.433 139.965 538.013 150.744C534.347 154.204 533.197 157.839 533.444 161.269L532.221 161.382C512.817 161.054 493.429 162.664 474.344 166.188C479.715 159.441 487.735 155.2 496.044 152.869C504.353 150.538 513.029 149.969 521.635 149.409C505.474 146.872 489.134 145.639 472.774 145.722C482.325 138.575 494.36 135.36 506.262 134.59C518.164 133.82 530.097 135.34 541.927 136.86C526.147 131.687 509.855 128.23 493.333 126.549C511.664 119.135 532.377 123.335 551.683 127.617C541.516 124.577 531.356 121.538 521.204 118.498C539.657 112.789 559.549 117.872 578.074 123.366C586.002 125.718 593.981 128.182 601.211 132.197C608.441 136.212 614.96 141.957 618.524 149.423Z" fill="#171717"/>
<path d="M618.5 150.748C618.5 150.748 617.863 153.548 617.833 167.784H616.9C616.9 167.784 573.554 155.82 543.825 177.571C543.825 177.571 534.069 170.071 533.443 161.271C533.196 157.841 534.343 154.206 538.012 150.746C549.432 139.963 602.492 148.055 615.575 150.246C617.445 150.552 618.5 150.748 618.5 150.748Z" fill="white" fill-opacity="0.96"/>
<path d="M340.116 435.984C346.278 334.504 476.758 240.151 548.516 244.259C550.2 244.351 551.648 245.635 552.89 247.637V247.647C558.158 256.14 559.76 277.603 559.76 277.603C559.76 277.603 532.208 314.572 540.906 332.697C549.604 350.822 623.635 326.165 623.635 326.165C623.635 326.165 625.021 330.756 626.5 337.308C627.414 341.333 628.358 346.098 629.036 350.996C630.844 363.864 630.844 377.635 623.636 381.26C612.309 386.96 543.926 396.242 501.812 390.091L477.125 435.984H340.116V435.984Z" fill="white" fill-opacity="0.96"/>
<path d="M444.954 679.425C448.268 692.189 449.942 705.322 449.935 718.509C449.935 721.272 449.86 724.018 449.709 726.745C447.587 765.525 430.912 802.076 403.015 829.097C375.118 856.117 338.054 871.618 299.226 872.501C260.399 873.385 222.667 859.586 193.57 833.862C164.473 808.138 146.153 772.383 142.27 733.74C138.387 695.097 149.227 656.411 172.624 625.412C196.021 594.413 230.253 573.383 268.48 566.524C306.707 559.664 346.114 567.48 378.83 588.41C411.545 609.34 435.159 641.843 444.954 679.425V679.425Z" stroke="#171717" stroke-width="4" stroke-linecap="round" stroke-linejoin="round"/>
<path d="M919.667 718.509C919.692 749.118 910.636 779.046 893.647 804.507C876.657 829.967 852.496 849.816 824.222 861.541C795.948 873.266 764.831 876.341 734.809 870.375C704.787 864.41 677.21 849.673 655.566 828.029C633.922 806.386 619.185 778.808 613.22 748.786C607.254 718.764 610.328 687.648 622.053 659.373C633.778 631.099 653.627 606.939 679.087 589.949C704.548 572.959 734.476 563.903 765.085 563.928C806.083 563.928 845.401 580.214 874.391 609.203C903.38 638.193 919.667 677.511 919.667 718.509V718.509Z" stroke="#171717" stroke-width="4" stroke-linecap="round" stroke-linejoin="round"/>
<path d="M300.591 676.365C309.937 677.008 318.691 681.173 325.086 688.019C331.481 694.866 335.039 703.884 335.044 713.252C335.047 714.942 334.93 716.631 334.695 718.304C333.725 725.334 330.752 731.935 326.132 737.321C321.512 742.707 315.439 746.649 308.639 748.677C301.84 750.705 294.6 750.733 287.784 748.758C280.969 746.783 274.866 742.889 270.204 737.539C265.542 732.189 262.518 725.611 261.493 718.59C260.468 711.568 261.486 704.4 264.425 697.941C267.363 691.482 272.099 686.006 278.066 682.165C284.033 678.325 290.979 676.283 298.075 676.283C298.712 676.283 299.349 676.303 299.975 676.334" stroke="#171717" stroke-width="3.081" stroke-linecap="round" stroke-linejoin="round"/>
<path d="M563.409 687.127C570.944 692.423 576.959 699.601 580.854 707.946C584.749 716.291 586.389 725.512 585.61 734.689C584.831 743.865 581.66 752.677 576.414 760.246C571.167 767.815 564.029 773.877 555.709 777.827" stroke="#171717" stroke-width="3.081" stroke-linecap="round" stroke-linejoin="round"/>
<path d="M298.074 676.283C298.074 676.283 298.731 676.303 299.974 676.334L300.59 676.365C304.451 676.478 312.523 676.724 323.203 677.022C355.003 677.922 409.895 679.332 444.954 679.422C460.554 679.473 472.229 679.258 476.213 678.631" stroke="#171717" stroke-width="3.081" stroke-linecap="round" stroke-linejoin="round"/>
<path d="M298.074 750.221L403.22 765.08L441 770.42L497.07 778.348" stroke="#171717" stroke-width="3.081" stroke-linecap="round" stroke-linejoin="round"/>
<path d="M605.615 473.713H605.625L714.16 450.843L714.499 452.589L716.481 462.807L736.619 566.546L762.508 699.963L765.085 713.252" stroke="#171717" stroke-width="3.081" stroke-linecap="round" stroke-linejoin="round"/>
<path d="M426.983 541.397L386.82 593.883L323.203 677.022L318.869 682.691L293.905 715.305L334.694 718.305L449.709 726.745L479.284 728.922" stroke="#171717" stroke-width="3.081" stroke-linecap="round" stroke-linejoin="round"/>
<path d="M691.692 345.02L695.163 361.348L714.161 450.843L562.804 681.746" stroke="#171717" stroke-width="3.081" stroke-linecap="round" stroke-linejoin="round"/>
<path d="M552.893 247.647C558.161 256.14 559.763 277.603 559.763 277.603C559.763 277.603 532.211 314.572 540.909 332.697C549.607 350.822 623.638 326.165 623.638 326.165C623.638 326.165 625.024 330.756 626.503 337.308C627.417 341.333 628.361 346.098 629.039 350.996C630.847 363.864 630.847 377.635 623.639 381.26C612.312 386.96 543.929 396.242 501.815 390.091C490.355 388.417 480.846 385.603 474.951 381.26C447.399 360.96 474.951 309.499 474.951 309.499" stroke="#171717" stroke-width="3.081" stroke-linecap="round" stroke-linejoin="round"/>
<path d="M501.814 390.081V390.091L477.127 435.984H340.116C346.278 334.504 476.758 240.151 548.516 244.259C550.2 244.351 551.648 245.635 552.89 247.637" stroke="#171717" stroke-width="3.081" stroke-linecap="round" stroke-linejoin="round"/>
<path d="M463.346 605.251C463.346 605.251 448.507 566.762 427.466 541.007C421.499 533.695 415.03 527.421 408.266 523.334C388.642 511.493 348.818 482.021 358.974 435.984" stroke="#171717" stroke-width="3.081" stroke-linecap="round" stroke-linejoin="round"/>
<path d="M477.127 435.984C477.127 435.984 581.555 437.935 605.627 473.713C609.066 478.697 610.78 484.67 610.505 490.719C608.326 542.907 554.937 604.2 554.937 604.2" stroke="#171717" stroke-width="3.081" stroke-linecap="round" stroke-linejoin="round"/>
<path d="M480.444 468.25C480.444 468.25 534.344 509.932 554.937 604.203C560.402 629.683 563.037 655.688 562.793 681.746C562.793 683.522 562.772 685.309 562.741 687.117C562.346 707.021 560.627 726.878 557.597 746.554" stroke="#171717" stroke-width="3.081" stroke-linecap="round" stroke-linejoin="round"/>
<path d="M559.763 277.6C559.763 277.6 619.92 244.256 618.472 200.755C617.979 185.803 617.825 175.226 617.836 167.781C617.866 153.548 618.503 150.745 618.503 150.745C618.503 150.745 617.445 150.545 615.576 150.245C602.493 148.058 549.433 139.966 538.013 150.745C534.347 154.205 533.197 157.84 533.444 161.27C534.07 170.07 543.826 177.57 543.826 177.57L552.893 247.636V247.646" stroke="#171717" stroke-width="3.081" stroke-linecap="round" stroke-linejoin="round"/>
<path d="M616.9 167.784C616.9 167.784 573.554 155.82 543.825 177.571" stroke="#171717" stroke-width="3.081" stroke-linecap="round" stroke-linejoin="round"/>
<path d="M575.948 244C574.308 244.793 572.486 245.133 570.67 244.985C568.855 244.837 567.112 244.206 565.622 243.157C564.133 242.108 562.951 240.68 562.2 239.021C561.448 237.361 561.154 235.531 561.348 233.72" stroke="#171717" stroke-width="3.081" stroke-linecap="round" stroke-linejoin="round"/>
<path d="M579.829 225.374C583.403 225.682 587.778 225.599 589.565 222.498C590.735 220.475 590.273 217.949 589.765 215.669C587.632 205.903 585.498 196.136 583.365 186.369C583.016 184.788 582.698 183.032 583.509 181.625C584.392 180.095 586.292 179.53 588.017 179.14C594.1 177.774 600.281 176.892 606.502 176.501" stroke="#171717" stroke-width="3.081" stroke-linecap="round" stroke-linejoin="round"/>
<path d="M603.6 193.529C602.279 192.378 600.656 191.627 598.923 191.365C597.189 191.103 595.417 191.341 593.814 192.05" stroke="#171717" stroke-width="3.081" stroke-linecap="round" stroke-linejoin="round"/>
<path d="M572.086 194.587C570.477 193.525 568.549 193.054 566.632 193.254C564.714 193.455 562.926 194.315 561.571 195.687" stroke="#171717" stroke-width="3.081" stroke-linecap="round" stroke-linejoin="round"/>
<path d="M618.524 149.423C614.96 141.957 608.439 136.217 601.21 132.201C593.981 128.185 586 125.722 578.073 123.37C559.548 117.876 539.656 112.793 521.203 118.502C531.359 121.542 541.519 124.582 551.682 127.621C532.376 123.339 511.663 119.139 493.332 126.553C509.854 128.235 526.146 131.692 541.926 136.864C530.096 135.344 518.173 133.824 506.261 134.594C494.349 135.364 482.324 138.579 472.773 145.726C489.133 145.644 505.473 146.877 521.634 149.413C513.028 149.977 504.341 150.542 496.043 152.873C487.745 155.204 479.715 159.445 474.343 166.192C493.428 162.669 512.816 161.059 532.22 161.386" stroke="#171717" stroke-width="3.081" stroke-linecap="round" stroke-linejoin="round"/>
<path d="M695.162 361.348C691.556 362.431 687.693 362.287 684.177 360.94C680.662 359.592 677.692 357.117 675.733 353.902C674.529 351.879 673.738 349.638 673.406 347.308C673.075 344.977 673.21 342.604 673.803 340.327C674.405 337.861 675.561 335.564 677.181 333.611C679.521 330.807 682.683 328.811 686.22 327.904C689.757 326.998 693.489 327.227 696.889 328.559C700.289 329.891 703.183 332.259 705.162 335.328C707.141 338.396 708.105 342.009 707.917 345.656C707.78 348.901 706.71 352.039 704.836 354.693C702.47 357.955 699.055 360.305 695.162 361.348Z" stroke="#171717" stroke-width="3.081" stroke-linecap="round" stroke-linejoin="round"/>
<path d="M626.894 337.215C638.046 328.743 649.404 320.158 662.494 315.208C675.584 310.258 690.929 309.345 703.201 316.091C715.473 322.837 723.201 338.499 718.122 351.551C716.91 354.642 714.785 357.692 711.591 358.565C708.397 359.438 704.341 357.965 704.834 354.693" stroke="#171717" stroke-width="3.081" stroke-linecap="round" stroke-linejoin="round"/>
<path d="M630.047 350.9C643.111 344.735 657.221 341.094 671.637 340.169" stroke="#171717" stroke-width="3.081" stroke-linecap="round" stroke-linejoin="round"/>
<path d="M714.5 452.589C715.65 440.595 729.3 431.024 738.879 426.054C743.15 423.678 747.776 422.007 752.579 421.104C755.21 420.669 757.898 420.728 760.507 421.279C768.024 422.932 773.847 429.114 777.359 435.963C781.516 443.867 782.853 452.953 781.148 461.719C780.259 466.068 778.472 470.183 775.901 473.801C773.33 477.419 770.031 480.46 766.217 482.729C765.234 483.291 764.215 483.788 763.167 484.218C754.14 487.987 743.317 487.011 734.701 482.257C728.149 478.632 720.17 470.992 716.483 462.807C715.096 459.94 714.393 456.791 714.429 453.607C714.438 453.267 714.458 452.928 714.5 452.589Z" stroke="#171717" stroke-width="3.081" stroke-linecap="round" stroke-linejoin="round"/>
<path d="M752.578 421.1C748.311 428.044 745.648 435.854 744.784 443.959C744.43 447.541 744.533 451.154 745.092 454.711C745.483 457.183 746.116 459.611 746.982 461.961C750.145 470.567 756.182 478.073 763.166 484.214" stroke="#171717" stroke-width="3.081" stroke-linecap="round" stroke-linejoin="round"/>
<path d="M747.484 461.79C752.064 462.068 756.942 461.41 760.577 458.607C764.212 455.804 766.071 450.371 763.75 446.407C762.117 443.607 758.78 442.107 755.545 441.961C752.284 441.973 749.066 442.703 746.118 444.097C746.262 443.932 746.395 443.768 746.539 443.604" stroke="#171717" stroke-width="3.081" stroke-linecap="round" stroke-linejoin="round"/>
<path d="M463.347 605.251C468.605 618.344 473.277 647.272 476.214 678.634C477.786 695.383 478.864 712.82 479.285 728.922C479.439 735.289 479.501 741.44 479.449 747.263C479.398 753.563 479.839 761.034 485.19 764.363C487.983 766.109 491.474 766.212 494.771 766.191C495.223 766.191 495.671 766.181 496.126 766.171C510.623 765.938 525.054 764.162 539.175 760.871C540.975 760.45 542.789 759.998 544.556 759.423C547.169 758.647 549.641 757.458 551.878 755.9C555.225 753.456 556.756 750.673 557.587 746.6C557.587 746.589 557.598 746.569 557.598 746.558C557.68 746.148 557.752 745.727 557.824 745.285" stroke="#171717" stroke-width="3.081" stroke-linecap="round" stroke-linejoin="round"/>
<path d="M496.074 765.973C496.097 766.038 496.114 766.105 496.125 766.173C497.14 770.148 497.46 774.268 497.07 778.352C496.926 780.899 496.69 783.452 496.57 785.982C496.241 792.688 497.011 800.082 501.756 804.826C503.947 806.901 506.612 808.41 509.519 809.221C512.558 810.082 515.663 810.684 518.803 811.021L565.394 817.183C567.037 817.408 568.694 817.624 570.333 817.84C576.444 818.64 582.749 819.44 588.695 817.819C594.641 816.198 600.195 811.524 600.884 805.404C601.798 797.24 594.004 790.575 586.168 788.121C578.332 785.667 569.768 785.749 562.221 782.521C559.733 781.453 557.409 780.035 555.321 778.311C549.7 773.71 545.947 767.219 544.764 760.052" stroke="#171717" stroke-width="3.081" stroke-linecap="round" stroke-linejoin="round"/>
<path d="M509.054 810.634C507.781 812.663 506.839 814.881 506.261 817.206C505.981 818.372 505.979 819.588 506.257 820.755C506.535 821.922 507.085 823.007 507.861 823.922C509.668 825.791 512.482 826.182 515.08 826.469C527.516 827.825 539.956 829.184 552.398 830.546C556.044 830.936 559.946 831.285 563.15 829.519C566.354 827.753 567.884 820.369 565.317 817.761" stroke="#171717" stroke-width="3.081" stroke-linecap="round" stroke-linejoin="round"/>
<path d="M757.332 703.29C755.987 704.986 755.223 707.069 755.153 709.233C755.083 711.396 755.71 713.525 756.942 715.305C758.243 717.034 760.02 718.345 762.056 719.079C764.092 719.812 766.297 719.935 768.402 719.434C770.618 718.92 772.596 717.676 774.019 715.901C780.719 707.285 770.867 697.807 762.508 699.963C760.477 700.503 758.667 701.666 757.332 703.29Z" stroke="#171717" stroke-width="3.081" stroke-linecap="round" stroke-linejoin="round"/>
<path d="M347.141 826.839C372.341 813.746 392.397 791.287 403.221 765.08C406.708 756.66 409.203 747.861 410.656 738.863" stroke="#171717" stroke-width="3.081" stroke-linecap="round" stroke-linejoin="round"/>
<path d="M175.008 710.325C169.134 676.991 183.563 640.895 210.808 620.798" stroke="#171717" stroke-width="3.081" stroke-linecap="round" stroke-linejoin="round"/>
<path d="M647.555 773.85C630.138 747.75 627.324 712.543 640.366 683.995" stroke="#171717" stroke-width="3.081" stroke-linecap="round" stroke-linejoin="round"/>
<path d="M865.642 798.054C893.942 767.329 903.142 720.337 888.542 681.212" stroke="#171717" stroke-width="3.081" stroke-linecap="round" stroke-linejoin="round"/>
<path d="M536.724 167.828C535.455 164.204 538.394 160.19 542.014 158.909C545.634 157.628 549.624 158.339 553.379 159.14C557.134 159.941 561.051 160.82 564.765 159.845C570.444 158.355 574.848 152.729 580.717 152.89C586.817 153.057 591.259 159.474 597.336 160.021C600.636 160.321 603.79 158.821 607.013 158.06C610.236 157.299 614.225 157.572 616.039 160.342" stroke="#171717" stroke-width="3.081" stroke-linecap="round" stroke-linejoin="round"/>
<path d="M744.158 485.264C738.076 477.25 734.184 467.791 732.864 457.817C731.545 447.843 732.843 437.697 736.631 428.377" stroke="#171717" stroke-width="3.081" stroke-linecap="round" stroke-linejoin="round"/>
<path d="M787.036 430.558C787.696 428.122 788.913 425.873 790.591 423.988" stroke="#171717" stroke-width="3.081" stroke-linecap="round" stroke-linejoin="round"/>
<path d="M796.32 447.272L822.972 437.66" stroke="#171717" stroke-width="3.081" stroke-linecap="round" stroke-linejoin="round"/>
<path d="M795.365 466.411L804.435 474.011" stroke="#171717" stroke-width="3.081" stroke-linecap="round" stroke-linejoin="round"/>
<path d="M293.032 253.974L410.432 250.632" stroke="#171717" stroke-width="3.081" stroke-linecap="round" stroke-linejoin="round"/>
<path d="M242.939 337.835L289.745 335.685" stroke="#171717" stroke-width="3.081" stroke-linecap="round" stroke-linejoin="round"/>
<path d="M144.05 429.282L270.176 422.706" stroke="#171717" stroke-width="3.081" stroke-linecap="round" stroke-linejoin="round"/>
<path d="M226.68 517.237L266.911 515.063" stroke="#171717" stroke-width="3.081" stroke-linecap="round" stroke-linejoin="round"/>
<path d="M605.808 385.61C607.419 368.217 606.92 350.693 604.321 333.42" stroke="#171717" stroke-width="3.081" stroke-linecap="round" stroke-linejoin="round"/>
<path d="M550.966 289.139C547.266 273.026 538.553 258.501 526.079 247.65L527.864 248.967" stroke="#171717" stroke-width="3.081" stroke-linecap="round" stroke-linejoin="round"/>
<path d="M344.838 408.566C391.794 409.66 438.656 412.637 485.423 417.497" stroke="#171717" stroke-width="3.081" stroke-linecap="round" stroke-linejoin="round"/>
<path d="M519.185 311.665L516.306 302.235" stroke="#171717" stroke-width="3.081" stroke-linecap="round" stroke-linejoin="round"/>
<path d="M479.301 279.051L485.825 277.238" stroke="#171717" stroke-width="3.081" stroke-linecap="round" stroke-linejoin="round"/>
<path d="M504.272 354.81L502.106 347.197" stroke="#171717" stroke-width="3.081" stroke-linecap="round" stroke-linejoin="round"/>
<path d="M560.834 374.36L565.548 369.65" stroke="#171717" stroke-width="3.081" stroke-linecap="round" stroke-linejoin="round"/>
<path d="M439.791 331.967L431.455 331.605" stroke="#171717" stroke-width="3.081" stroke-linecap="round" stroke-linejoin="round"/>
<path d="M378.518 376.169L383.218 369.636" stroke="#171717" stroke-width="3.081" stroke-linecap="round" stroke-linejoin="round"/>
<path d="M435.655 402.543L431.586 393.883" stroke="#171717" stroke-width="3.081" stroke-linecap="round" stroke-linejoin="round"/>
<path d="M482.486 395.569L473.83 398.939" stroke="#171717" stroke-width="3.081" stroke-linecap="round" stroke-linejoin="round"/>
<path d="M497.088 794.72C514.231 799.537 531.715 803.031 549.211 806.344C566.006 809.523 583.932 812.438 599.732 805.916" stroke="#171717" stroke-width="3.081" stroke-linecap="round" stroke-linejoin="round"/>
<path d="M573.524 786.083C567.981 787.947 563.085 791.354 559.411 795.903" stroke="#171717" stroke-width="3.081" stroke-linecap="round" stroke-linejoin="round"/>
<path d="M557.178 781.286C552.137 783.358 547.77 786.791 544.566 791.201" stroke="#171717" stroke-width="3.081" stroke-linecap="round" stroke-linejoin="round"/>
<path d="M546.732 770.939C541.776 772.789 537.542 776.174 534.646 780.601" stroke="#171717" stroke-width="3.081" stroke-linecap="round" stroke-linejoin="round"/>
<path fill-rule="evenodd" clip-rule="evenodd" d="M562.741 687.117C562.346 707.022 560.628 726.878 557.597 746.554C557.597 746.565 557.586 746.585 557.586 746.596C556.755 750.672 555.224 753.455 551.877 755.896C549.64 757.454 547.168 758.643 544.555 759.419C542.788 759.994 540.971 760.446 539.174 760.867C525.054 764.158 510.623 765.935 496.125 766.167L496.114 766.168C495.666 766.178 495.221 766.187 494.77 766.187C491.47 766.208 487.982 766.105 485.189 764.359C479.838 761.032 479.397 753.566 479.448 747.259C479.5 741.436 479.438 735.285 479.284 728.918C478.863 712.818 477.784 695.379 476.213 678.63C473.276 647.268 468.604 618.34 463.346 605.247C463.346 605.247 448.507 566.758 427.466 541.003C421.499 533.691 415.03 527.417 408.266 523.33C388.642 511.489 348.818 482.017 358.974 435.98H477.127C477.127 435.98 581.555 437.931 605.627 473.709C609.067 478.693 610.78 484.666 610.505 490.715C608.326 542.907 554.937 604.2 554.937 604.2C560.402 629.68 563.037 655.685 562.793 681.743C562.793 683.522 562.772 685.309 562.741 687.117ZM600.802 471.563C600.947 472.401 600.384 473.198 599.545 473.342C575.086 477.552 563.378 479.283 552.893 480.834L552.893 480.834L551.824 480.992C541.074 482.582 531.209 484.063 509.478 487.975C508.641 488.126 507.84 487.569 507.689 486.732C507.538 485.895 508.095 485.094 508.932 484.943C530.701 481.024 540.599 479.538 551.374 477.944L552.446 477.785C562.915 476.237 574.598 474.51 599.023 470.306C599.861 470.162 600.658 470.724 600.802 471.563ZM458.831 461.75C458.016 461.507 457.158 461.972 456.915 462.787C456.672 463.602 457.137 464.46 457.952 464.703C473.431 469.311 486.873 479.629 497.281 492.189C507.692 504.753 515.259 519.481 521.758 534.614C538.561 573.798 548.406 615.609 550.852 658.173C550.9 659.022 551.629 659.671 552.478 659.623C553.327 659.574 553.976 658.846 553.928 657.996C551.461 615.075 541.533 572.912 524.589 533.399L524.589 533.399C518.044 518.158 510.339 503.119 499.654 490.224C488.966 477.326 475.04 466.576 458.831 461.75Z" fill="#171717"/>
<path d="M850.97 195.46C847.98 189.192 843.341 183.855 837.549 180.022C831.758 176.19 825.033 174.005 818.095 173.703C811.156 173.401 804.267 174.993 798.164 178.307C792.062 181.622 786.976 186.535 783.453 192.52C778.607 200.749 777.176 211.662 782.311 219.714C787.446 227.766 800.235 230.628 806.896 223.785C814.956 215.505 807.81 199.885 796.613 197.039C785.416 194.193 773.744 200.604 765.866 209.056C757.988 217.508 752.61 227.992 745.131 236.8C723.236 262.586 682.681 270.194 652.931 254.1" stroke="#171717" stroke-width="3.081" stroke-linecap="round" stroke-linejoin="round"/>
<path d="M138.1 527.424C148.6 539.834 149.075 559.617 139.195 572.524C134.832 578.224 127.971 582.76 120.864 581.77C113.757 580.78 108 572.216 111.68 566.053C114.106 561.986 119.662 560.506 124.187 561.903C128.712 563.3 132.213 567.041 134.395 571.245C136.875 576.243 137.8 581.869 137.05 587.397C136.301 592.926 133.911 598.103 130.19 602.26C120.913 612.252 105.866 613.848 92.2334 614.081C78.6004 614.314 63.9264 614.122 52.7534 621.938C39.2604 631.378 35.4844 652.175 44.7964 665.756" stroke="#171717" stroke-width="3.081" stroke-linecap="round" stroke-linejoin="round"/>
<path d="M773.601 150.746V134.8" stroke="#171717" stroke-width="3.081" stroke-linecap="round" stroke-linejoin="round"/>
<path d="M763.451 142.048C769.412 142.975 775.513 141.958 780.851 139.148" stroke="#171717" stroke-width="3.081" stroke-linecap="round" stroke-linejoin="round"/>
<path d="M798.246 381.259L811.294 375.459" stroke="#171717" stroke-width="3.081" stroke-linecap="round" stroke-linejoin="round"/>
<path d="M806.945 387.058L801.145 372.558" stroke="#171717" stroke-width="3.081" stroke-linecap="round" stroke-linejoin="round"/>
<path d="M399.56 146.4L389.412 139.151" stroke="#171717" stroke-width="3.081" stroke-linecap="round" stroke-linejoin="round"/>
<path d="M388.2 150.914L399.741 134.926" stroke="#171717" stroke-width="3.081" stroke-linecap="round" stroke-linejoin="round"/>
<path d="M470.601 97.105L480.749 86.957" stroke="#171717" stroke-width="3.081" stroke-linecap="round" stroke-linejoin="round"/>
<path d="M480.747 97.105L469.147 86.957" stroke="#171717" stroke-width="3.081" stroke-linecap="round" stroke-linejoin="round"/>
<path d="M902.629 590.025L915.677 581.325" stroke="#171717" stroke-width="3.081" stroke-linecap="round" stroke-linejoin="round"/>
<path d="M911.437 594.309L902.715 579.825" stroke="#171717" stroke-width="3.081" stroke-linecap="round" stroke-linejoin="round"/>
<path d="M880.883 524.786L893.931 521.886" stroke="#171717" stroke-width="3.081" stroke-linecap="round" stroke-linejoin="round"/>
<path d="M887.938 533.518L884.965 516.133" stroke="#171717" stroke-width="3.081" stroke-linecap="round" stroke-linejoin="round"/>
<path d="M456.401 658.17C456.91 630.891 449.934 603.993 436.229 580.4" stroke="#171717" stroke-width="3.081" stroke-linecap="round" stroke-linejoin="round"/>
<path d="M544.054 432.079C565.036 432.391 585.333 439.599 601.812 452.591" stroke="#171717" stroke-width="3.081" stroke-linecap="round" stroke-linejoin="round"/>
<path d="M386.073 310.744C413.813 280.86 448.478 258.258 487.012 244.931" stroke="#171717" stroke-width="3.081" stroke-linecap="round" stroke-linejoin="round"/>
<path d="M595.274 120.017C585.941 110.311 571.75 107.123 558.323 106.117C544.896 105.111 531.141 105.782 518.264 101.848" stroke="#171717" stroke-width="3.081" stroke-linecap="round" stroke-linejoin="round"/>
<path d="M89.6736 595.462L80.9736 584.589" stroke="#171717" stroke-width="3.081" stroke-linecap="round" stroke-linejoin="round"/>
<path d="M77.7119 595.462L87.4979 585.676" stroke="#171717" stroke-width="3.081" stroke-linecap="round" stroke-linejoin="round"/>
<path d="M90.7606 659.614L82.0605 653.09" stroke="#171717" stroke-width="3.081" stroke-linecap="round" stroke-linejoin="round"/>
<path d="M80.9746 660.7L87.4986 650.914" stroke="#171717" stroke-width="3.081" stroke-linecap="round" stroke-linejoin="round"/>
<path d="M480.087 403.707L475.354 391.029" stroke="#171717" stroke-width="3.081" stroke-linecap="round" stroke-linejoin="round"/>
<path d="M427.107 402.645L437.582 394.264" stroke="#171717" stroke-width="3.081" stroke-linecap="round" stroke-linejoin="round"/>
<path d="M383.975 376.91L376 370.023" stroke="#171717" stroke-width="3.081" stroke-linecap="round" stroke-linejoin="round"/>
<path d="M435.645 335.958L435.382 326.532" stroke="#171717" stroke-width="3.081" stroke-linecap="round" stroke-linejoin="round"/>
<path d="M483.265 282.318L481.02 273.637" stroke="#171717" stroke-width="3.081" stroke-linecap="round" stroke-linejoin="round"/>
<path d="M512.236 309.786L522.988 303.286L522.066 303.7" stroke="#171717" stroke-width="3.081" stroke-linecap="round" stroke-linejoin="round"/>
<path d="M496.605 354.291L506.753 348.129" stroke="#171717" stroke-width="3.081" stroke-linecap="round" stroke-linejoin="round"/>
<path d="M566.283 376.91L558.672 367.849" stroke="#171717" stroke-width="3.081" stroke-linecap="round" stroke-linejoin="round"/>
<path d="M280.952 167.466C282.934 172.778 283.277 178.562 281.938 184.07C280.598 189.579 277.638 194.56 273.439 198.369C269.24 202.179 263.996 204.642 258.383 205.44C252.77 206.238 247.047 205.335 241.952 202.848C236.718 200.292 232.073 195.613 231.442 189.822C230.811 184.031 235.669 177.706 241.457 178.356C246.022 178.868 249.257 183.139 250.868 187.442C252.832 192.695 253.211 198.409 251.956 203.875C250.702 209.342 247.871 214.319 243.814 218.191C239.757 222.063 234.652 224.659 229.133 225.656C223.614 226.654 217.924 226.009 212.768 223.802C202.152 219.255 195.409 208.965 188.004 200.102C180.599 191.239 170.294 182.788 158.848 184.331C151.522 185.319 145.232 190.409 141.203 196.606C137.174 202.803 135.103 210.05 133.396 217.242" stroke="#171717" stroke-width="3.081" stroke-linecap="round" stroke-linejoin="round"/>
<path d="M689.341 143.59L695.952 149.19C696.152 149.359 696.294 149.585 696.361 149.837C696.428 150.09 696.416 150.357 696.327 150.603C696.238 150.848 696.075 151.061 695.862 151.212C695.648 151.362 695.394 151.444 695.132 151.446L686.469 151.49C686.216 151.491 685.969 151.568 685.759 151.711C685.549 151.853 685.387 152.054 685.292 152.29L682.01 160.301C681.911 160.543 681.74 160.749 681.52 160.891C681.301 161.033 681.043 161.104 680.781 161.095C680.52 161.086 680.267 160.997 680.058 160.84C679.849 160.683 679.692 160.466 679.61 160.218L676.891 151.993C676.812 151.752 676.663 151.541 676.464 151.386C676.265 151.23 676.024 151.137 675.772 151.118L667.132 150.475C666.872 150.455 666.623 150.356 666.421 150.191C666.218 150.026 666.071 149.802 665.999 149.551C665.927 149.3 665.933 149.033 666.018 148.785C666.102 148.538 666.26 148.322 666.47 148.168L673.453 143.04C673.657 142.89 673.812 142.683 673.898 142.446C673.984 142.208 673.998 141.95 673.938 141.705L671.881 133.29C671.819 133.036 671.836 132.769 671.931 132.525C672.025 132.281 672.192 132.072 672.408 131.926C672.625 131.78 672.881 131.703 673.143 131.707C673.404 131.711 673.658 131.795 673.87 131.948L680.906 137.001C681.111 137.148 681.356 137.231 681.608 137.24C681.861 137.249 682.11 137.182 682.325 137.05L689.693 132.493C689.916 132.355 690.175 132.289 690.436 132.303C690.697 132.318 690.947 132.411 691.153 132.572C691.359 132.733 691.511 132.953 691.588 133.203C691.665 133.453 691.664 133.72 691.584 133.97L688.949 142.222C688.872 142.463 688.868 142.721 688.938 142.965C689.008 143.208 689.148 143.426 689.341 143.59V143.59Z" fill="#171717"/>
<g opacity="0.1">
<path d="M299.719 677.476C293.959 673.307 282.819 677.934 277.634 681.356C270.273 686.077 264.901 693.336 262.54 701.756C257.69 719.356 266.3 738.35 281.914 747.33C293.365 753.915 303.84 735.523 292.182 729.763C283.44 725.444 277.334 715.637 279.482 705.696C280.706 700.639 283.301 696.017 286.982 692.339C288.821 690.353 290.975 688.683 293.357 687.397C295.679 686.178 298.729 685.077 300.433 683.068C300.806 682.676 301.087 682.206 301.255 681.692C301.423 681.178 301.475 680.633 301.406 680.096C301.337 679.56 301.149 679.045 300.856 678.591C300.563 678.136 300.172 677.753 299.712 677.468L299.719 677.476Z" fill="#171717"/>
</g>
<g opacity="0.1">
<path d="M547.781 243.636C528.263 244.091 509.367 249.188 491.18 256.123C437.182 276.42 391.999 314.99 363.48 365.134C358.255 374.372 353.604 383.924 349.553 393.734C347.474 398.716 345.555 403.76 343.796 408.865C341.689 415.024 338.852 421.128 342.489 427.279C343.79 429.408 345.865 430.95 348.278 431.584C350.692 432.218 353.257 431.893 355.437 430.679C360.698 427.924 361.591 422.748 363.203 417.574C364.566 413.198 366.058 408.865 367.678 404.574C370.612 396.841 373.988 389.282 377.79 381.936C385.619 366.579 395.149 352.151 406.2 338.922C429.281 311.541 458.353 289.838 491.165 275.493C509.923 267.271 529.912 262.499 549.624 257.263C557.114 255.274 555.689 243.452 547.781 243.636Z" fill="#171717"/>
</g>
<g opacity="0.1">
<path d="M546.575 177.771C545.697 189.471 547.296 201.071 548.466 212.726C549.636 224.381 551.107 236.034 552.466 247.681C552.919 251.581 555.459 254.856 559.684 254.9C563.23 254.937 567.364 251.551 566.903 247.681C565.477 235.721 564.158 223.742 562.546 211.805C560.939 199.905 559.82 187.925 556.156 176.475C554.44 171.111 546.99 172.311 546.58 177.775L546.575 177.771Z" fill="#171717"/>
</g>
<g opacity="0.1">
<path d="M475.334 311.482C470.948 316.062 467.224 319.766 465.419 326.155C463.71 332.678 463.062 339.433 463.5 346.163C463.732 352.667 464.725 359.121 466.46 365.394C468.412 371.973 470.852 379.43 477.523 382.173C481.935 383.987 485.453 379.525 485.89 375.8C486.49 370.657 482.099 365.473 480.29 360.749C478.205 355.577 476.925 350.116 476.497 344.557C476.239 339.215 476.507 333.861 477.296 328.572C478.011 323.259 477.397 317.847 478.053 312.609C478.23 311.2 476.217 310.559 475.333 311.482H475.334Z" fill="#171717"/>
</g>
<g opacity="0.1">
<path d="M496.57 772.066C493.646 782.978 495.956 797.097 501.765 806.734C506.312 814.278 519.705 809.398 516.501 800.522C514.91 796.114 513.058 791.973 512.02 787.371C511.006 782.871 510.852 778.471 510.32 773.927C509.454 766.577 498.775 763.85 496.573 772.066H496.57Z" fill="#171717"/>
</g>
</g>
<defs>
<clipPath id="clip0_317_818">
<rect width="884" height="791" fill="white" transform="translate(38 85)"/>
</clipPath>
</defs>
</svg>
